<svg xmlns="http://www.w3.org/2000/svg" fill="none" viewBox="0 0 24 24" class="h-7"><path fill="black" fill-rule="evenodd" d="M12.5844 12.8165C12.2752 13.4341 11.7448 13.8318 11.171 13.9659C11.084 13.9659 10.9511 14.0094 10.8182 14.0094C9.84808 14.0094 9.27424 13.2588 9.27424 12.1553C9.27424 10.7412 10.1127 10.08 11.171 9.76941C11.7448 9.63765 12.4081 9.59294 13.0701 9.59294V10.1235C13.0701 11.1388 13.1136 11.9329 12.5844 12.8165ZM13.0701 7.56353C12.4962 7.60706 11.833 7.65059 11.171 7.73765C10.1562 7.87176 9.14136 8.04823 8.3041 8.44588C6.67076 9.10823 5.56657 10.5212 5.56657 12.5953C5.56657 15.2024 7.24343 16.5259 9.36361 16.5259C10.0692 16.5259 10.643 16.4365 11.171 16.3059C12.0118 16.04 12.7161 15.5541 13.5546 14.6706C14.0402 15.3329 14.1743 15.6435 15.0115 16.3494C15.2326 16.4365 15.4537 16.4365 15.6289 16.3059C16.1592 15.8635 17.087 15.0682 17.5715 14.6271C17.7926 14.4506 17.7491 14.1847 17.615 13.9659C17.1305 13.3471 16.6437 12.8165 16.6437 11.6247V7.65059C16.6437 5.97294 16.7778 4.42706 15.5419 3.28C14.5271 2.35412 12.9372 2 11.7013 2H11.171C8.92146 2.13059 6.53905 3.10235 6.00754 5.88471C5.91935 6.23882 6.1851 6.37059 6.36149 6.41412L8.83327 6.72353C9.09785 6.67882 9.23073 6.45765 9.27424 6.23882C9.49413 5.26706 10.2891 4.78118 11.171 4.69176H11.3486C11.8789 4.69176 12.4527 4.91294 12.7608 5.35529C13.1136 5.88471 13.0701 6.59176 13.0701 7.21059V7.56353Z" clip-rule="evenodd"></path><path fill="#FF9A00" fill-rule="evenodd" d="M21.9976 16.9776V16.9765C21.9882 16.7682 21.9447 16.6094 21.8577 16.4776L21.8483 16.4647L21.8377 16.4518C21.7495 16.3553 21.6649 16.3188 21.5731 16.2788C21.2992 16.1729 20.9005 16.1165 20.4207 16.1153C20.0762 16.1153 19.6964 16.1482 19.3142 16.2318L19.313 16.2059L18.9285 16.3341L18.9215 16.3376L18.7039 16.4082V16.4176C18.4487 16.5235 18.2171 16.6553 18.0019 16.8118C17.8678 16.9118 17.7573 17.0447 17.7514 17.2482C17.7479 17.3588 17.8043 17.4859 17.8972 17.5612C17.9901 17.6365 18.0983 17.6624 18.1936 17.6624C18.2159 17.6624 18.2371 17.6612 18.2559 17.6576L18.2747 17.6565L18.2888 17.6541C18.477 17.6141 18.7509 17.5871 19.072 17.5424C19.3471 17.5118 19.6388 17.4894 19.8916 17.4894C20.0703 17.4882 20.2314 17.5012 20.342 17.5247C20.3972 17.5365 20.4384 17.5506 20.4607 17.5624C20.469 17.5647 20.4748 17.5682 20.4784 17.5706C20.4831 17.5859 20.4901 17.6259 20.4889 17.6812C20.4913 17.8929 20.4019 18.2859 20.2785 18.6694C20.1585 19.0529 20.0127 19.4376 19.9163 19.6929C19.8928 19.7518 19.8775 19.8165 19.8775 19.8871C19.8751 19.9894 19.9175 20.1141 20.0068 20.1965C20.0938 20.2788 20.2067 20.3118 20.3008 20.3118H20.3055C20.4466 20.3106 20.5666 20.2541 20.67 20.1729C21.646 19.2953 21.9859 17.8929 22 17.1035L21.9976 16.9776ZM19.1037 18.1941C19.0038 18.1929 18.9015 18.2165 18.8062 18.2612C18.6992 18.3035 18.5898 18.3529 18.4864 18.3965L18.3347 18.46L18.1371 18.5388V18.5412C15.9911 19.4118 13.7368 19.9224 11.6508 19.9671C11.5743 19.9694 11.4967 19.9694 11.4226 19.9694C8.14183 19.9718 5.46544 18.4494 2.76554 16.9494C2.67147 16.9 2.57387 16.8741 2.47979 16.8741C2.35867 16.8741 2.23403 16.92 2.14348 17.0047C2.05294 17.0906 1.99884 17.2141 2.00002 17.34C1.99884 17.5035 2.08704 17.6541 2.21051 17.7518C4.74461 19.9529 7.52212 21.9976 11.258 22C11.3309 22 11.405 21.9976 11.4791 21.9965C13.8556 21.9435 16.5426 21.14 18.6286 19.8294L18.6416 19.8212C18.9144 19.6576 19.1872 19.4718 19.4447 19.2659C19.6047 19.1471 19.7152 18.9612 19.7152 18.7682C19.7081 18.4259 19.4177 18.1941 19.1037 18.1941Z" clip-rule="evenodd"></path></svg>