<svg xmlns="http://www.w3.org/2000/svg" fill="#410CD9"  viewBox="0 0 24 24" aria-hidden="true" class="h-5 w-5 shrink-0 text-content-accent"><path fill-rule="evenodd" d="M7 4C6.44772 4 6 4.44772 6 5V19C6 19.5523 6.44772 20 7 20H17C17.5523 20 18 19.5523 18 19V9.41421L12.5858 4H7ZM4 5C4 3.34315 5.34315 2 7 2H12.5858C13.1162 2 13.6249 2.21071 14 2.58579L19.4142 8C19.7893 8.37507 20 8.88378 20 9.41421V19C20 20.6569 18.6569 22 17 22H7C5.34315 22 4 20.6569 4 19V5Z" clip-rule="evenodd"></path><path fill-rule="evenodd" d="M12.4472 7.60557C12.9412 7.85256 13.1414 8.45324 12.8944 8.94721L11.618 11.5H14C14.3466 11.5 14.6684 11.6795 14.8507 11.9743C15.0329 12.2691 15.0494 12.6372 14.8944 12.9472L12.8944 16.9472C12.6474 17.4412 12.0468 17.6414 11.5528 17.3944C11.0588 17.1474 10.8586 16.5468 11.1056 16.0528L12.382 13.5H10C9.65342 13.5 9.33156 13.3205 9.14935 13.0257C8.96714 12.7309 8.95058 12.3628 9.10557 12.0528L11.1056 8.05279C11.3526 7.55881 11.9532 7.35858 12.4472 7.60557Z" clip-rule="evenodd"></path></svg>