<svg xmlns="http://www.w3.org/2000/svg"  viewBox="0 0 24 24" fill="currentColor" aria-hidden="true" class="h-5 w-5 shrink-0 transition duration-200 fill-content-accent"><path fill-rule="evenodd" d="M3 5.5C3 4.11929 4.11929 3 5.5 3H8.5C9.88071 3 11 4.11929 11 5.5V8.5C11 9.88071 9.88071 11 8.5 11H5.5C4.11929 11 3 9.88071 3 8.5V5.5Z" clip-rule="evenodd"></path><path fill-rule="evenodd" d="M3 15.5C3 14.1193 4.11929 13 5.5 13H8.5C9.88071 13 11 14.1193 11 15.5V18.5C11 19.8807 9.88071 21 8.5 21H5.5C4.11929 21 3 19.8807 3 18.5V15.5Z" clip-rule="evenodd"></path><path fill-rule="evenodd" d="M13 5.5C13 4.11929 14.1193 3 15.5 3H18.5C19.8807 3 21 4.11929 21 5.5V8.5C21 9.88071 19.8807 11 18.5 11H15.5C14.1193 11 13 9.88071 13 8.5V5.5Z" clip-rule="evenodd"></path><path fill-rule="evenodd" d="M17 13C17.5523 13 18 13.4477 18 14V16H20C20.5523 16 21 16.4477 21 17C21 17.5523 20.5523 18 20 18H18V20C18 20.5523 17.5523 21 17 21C16.4477 21 16 20.5523 16 20V18H14C13.4477 18 13 17.5523 13 17C13 16.4477 13.4477 16 14 16H16V14C16 13.4477 16.4477 13 17 13Z" clip-rule="evenodd"></path></svg>