<svg xmlns="http://www.w3.org/2000/svg" fill="none" viewBox="0 0 24 24" class="h-7"><path fill="#FF2300" d="M22.0003 12.0002C22.0003 17.5231 17.5231 22.0003 12.0002 22.0003C6.47722 22.0003 2 17.5231 2 12.0002C2 6.47722 6.47722 2 12.0002 2C17.5231 2 22.0003 6.47722 22.0003 12.0002Z"></path><path fill="black" d="M7.70389 13.2116C7.70389 11.4029 9.00035 10.2911 11.0734 10.2911H13.2197V7.63933H15.906V15.9696H11.0634C9.00032 15.9696 7.70389 14.9009 7.70389 13.2116ZM10.5379 13.122C10.5379 13.8157 10.9598 14.1774 11.7703 14.1774H13.2053V12.0534H11.7836C10.9731 12.0534 10.5379 12.4184 10.5379 13.122Z"></path></svg>