<svg xmlns="http://www.w3.org/2000/svg"  fill="none" viewBox="0 0 24 24" class="h-7"><path fill="#F45800" d="M3 5C3 3.89543 3.89543 3 5 3H19C20.1046 3 21 3.89543 21 5V19C21 20.1046 20.1046 21 19 21H5C3.89543 21 3 20.1046 3 19V5Z"></path><path fill="white" d="M10.0433 7.86787V12.0009C10.0433 12.0009 11.4991 12.0009 12.2783 11.9417C12.891 11.8344 13.0038 11.7753 13.1166 11.1623L13.3421 10.2646H14.0085L13.8957 12.2265L13.9549 14.2366H13.283L13.1166 13.4517C12.9502 12.8931 12.7246 12.7796 12.2783 12.726C11.7199 12.6668 10.0433 12.6668 10.0433 12.6668V16.1332C10.0433 16.7998 10.3817 17.0846 11.1608 17.0846H13.5086C14.2341 17.0846 14.9589 17.0255 15.4107 15.9668L16.0179 14.6232H16.5818C16.5227 14.9025 16.2435 17.3639 16.1898 17.9177C16.1898 17.9177 14.0676 17.864 13.1757 17.864H9.15139L6.75 17.9177V17.3103L7.52915 17.1383C8.09305 17.0255 8.25947 16.859 8.25947 16.4125C8.25947 16.4125 8.31861 14.9025 8.31861 12.3868C8.31861 9.87728 8.25947 8.36661 8.25947 8.36661C8.25947 7.86649 8.09305 7.75367 7.52915 7.64086L6.75 7.47576V6.86282L9.09775 6.91097H13.5677C14.4596 6.91097 15.9636 6.75 15.9636 6.75C15.9636 6.75 15.91 7.69589 15.8508 9.93163H15.2381L15.0125 9.14671C14.7925 8.14166 14.4589 7.64154 13.8414 7.64154H10.328C10.0433 7.64223 10.0433 7.69589 10.0433 7.86787Z"></path></svg>