<svg xmlns="http://www.w3.org/2000/svg" fill="#410CD9" viewBox="0 0 18 17"  aria-hidden="true" class="h-5 w-5 shrink-0 text-content-accent"><path d="M9.83333 5.08346C10.2936 5.08346 10.6667 4.71036 10.6667 4.25012C10.6667 3.78988 10.2936 3.41679 9.83333 3.41679C9.3731 3.41679 9 3.78988 9 4.25012C9 4.71036 9.3731 5.08346 9.83333 5.08346Z"></path><path fill-rule="evenodd" d="M11.4045 0.311038C12.7731 0.128558 14.0305 1.0901 14.213 2.4587L15.4391 11.6546C15.6216 13.0232 14.66 14.2806 13.2914 14.4631L4.09551 15.6892C2.72691 15.8717 1.46952 14.9101 1.28704 13.5415L0.0609156 4.34564C-0.121565 2.97704 0.839977 1.71964 2.20858 1.53716L11.4045 0.311038ZM12.5609 2.67897C12.5001 2.22277 12.081 1.90226 11.6248 1.96308L2.42885 3.18921C1.97265 3.25003 1.65214 3.66916 1.71296 4.12536L2.44966 9.65058L4 7.58346C4.82843 6.47889 6.39543 6.25503 7.5 7.08346L8.86664 8.10844L9.45283 7.40501C10.2905 6.39977 11.7617 6.21057 12.8265 6.97114L13.1655 7.21329L12.5609 2.67897ZM10.1667 11.1668L6.5 8.41679C6.13181 8.14065 5.60948 8.21527 5.33333 8.58346L2.76412 12.0091L2.93908 13.3213C2.99991 13.7775 3.41904 14.098 3.87524 14.0372L13.0712 12.811C13.5274 12.7502 13.8479 12.3311 13.787 11.8749L13.4673 9.47706L11.8578 8.32736C11.5028 8.07384 11.0124 8.13691 10.7332 8.47199L10.2017 9.10975L11.1667 9.83346C11.5349 10.1096 11.6095 10.6319 11.3333 11.0001C11.0572 11.3683 10.5349 11.4429 10.1667 11.1668Z" clip-rule="evenodd"></path><path d="M9.02767 15.8723L13.9046 16.5225C15.2732 16.705 16.5306 15.7435 16.7131 14.3749L17.9392 5.17897C18.1217 3.81037 17.1602 2.55297 15.7916 2.37049L15.0273 2.26859C15.0315 2.29512 15.0354 2.32178 15.039 2.34855L15.2566 3.98057L15.5713 4.02254C16.0275 4.08336 16.348 4.5025 16.2872 4.9587L15.8371 8.33453L16.2651 11.5445C16.5084 13.3693 15.2263 15.0458 13.4015 15.2891L9.02767 15.8723Z"></path></svg>