<svg xmlns="http://www.w3.org/2000/svg" fill="#410CD9" viewBox="0 0 24 24"  aria-hidden="true" class="h-5 w-5 shrink-0 text-content-accent"><path fill-rule="evenodd" d="M3 5C3.55228 5 4 5.44772 4 6V11H9V6C9 5.44772 9.44772 5 10 5C10.5523 5 11 5.44772 11 6V18C11 18.5523 10.5523 19 10 19C9.44772 19 9 18.5523 9 18V13H4V18C4 18.5523 3.55228 19 3 19C2.44772 19 2 18.5523 2 18V6C2 5.44772 2.44772 5 3 5ZM13 6C13 5.44772 13.4477 5 14 5H16.9346C18.5593 5 20.0765 5.81199 20.9777 7.16383C22.9301 10.0924 22.9301 13.9076 20.9777 16.8362C20.0765 18.188 18.5593 19 16.9346 19H14C13.4477 19 13 18.5523 13 18V6ZM15 7V17H16.9346C17.8906 17 18.7833 16.5222 19.3136 15.7268C20.8181 13.47 20.8181 10.53 19.3136 8.27323C18.7833 7.47779 17.8906 7 16.9346 7H15Z" clip-rule="evenodd"></path></svg>