<svg xmlns="http://www.w3.org/2000/svg"  fill="none" viewBox="0 0 24 24" class="h-7"><path fill="url(#paint0_linear_4075_11899)" d="M12.0049 20C11.8629 20.0009 11.7231 19.9651 11.5996 19.8961C10.5417 19.293 2.70695 14.4523 2.41107 14.3045C2.1859 14.201 2.03214 13.9889 2.00576 13.7454V6.95556C1.99993 6.70211 2.12708 6.4636 2.34217 6.32451L2.39891 6.29256C3.15685 5.82925 5.69411 4.30354 6.09538 4.08387C6.18746 4.03003 6.29233 4.0011 6.39937 4C6.49973 4.00112 6.59837 4.02576 6.68715 4.07189C6.68715 4.07189 10.2377 6.35247 10.7808 6.55616C11.1619 6.72869 11.5775 6.81468 11.9968 6.80778C12.4719 6.81757 12.9415 6.70466 13.3586 6.48028C13.8896 6.20469 17.2821 4.08387 17.3186 4.08387C17.4041 4.03297 17.5024 4.00668 17.6023 4.00799C17.7094 4.0085 17.8144 4.03748 17.9063 4.09186C18.3683 4.34348 21.5136 6.24064 21.6473 6.32451C21.8686 6.45603 22.0027 6.69301 22 6.94758V13.7374C21.9752 13.9815 21.8209 14.1943 21.5947 14.2965C21.2988 14.4563 13.4883 19.297 12.4102 19.8882C12.2875 19.9599 12.1476 19.9985 12.0049 20Z"></path><path fill="url(#paint1_linear_4075_11899)" d="M11.9637 19.9995L12.0042 19.9994C12.1462 20.0004 12.286 19.9646 12.4095 19.8956C13.4674 19.2925 21.2981 14.4518 21.594 14.304C21.8202 14.2017 21.9745 13.9889 21.9993 13.7448V6.95501C22.0006 6.84006 21.9742 6.72645 21.9223 6.62351L11.9637 12.0114V19.9995Z"></path><path fill="url(#paint2_linear_4075_11899)" d="M11.9287 19.9045L11.8886 19.9045C11.7481 19.9055 11.6099 19.87 11.4876 19.8018C10.441 19.2051 2.69376 14.416 2.40103 14.2697C2.1772 14.1685 2.02459 13.958 2.00005 13.7165V6.99907C1.99875 6.88535 2.02486 6.77295 2.07623 6.6711L11.9287 12.0016V19.9045Z"></path><defs><linearGradient id="paint0_linear_4075_11899" x1="1.98785" x2="21.8039" y1="4.14621" y2="3.99041" gradientUnits="userSpaceOnUse"><stop offset="1e-7" stop-color="#FF9200"></stop><stop offset="0.337553" stop-color="#F36D00"></stop><stop offset="0.56729" stop-color="#F83C72"></stop><stop offset="0.78" stop-color="#FC1CBE"></stop><stop offset="0.93" stop-color="#FE08ED"></stop><stop offset="1" stop-color="#FF00FF"></stop></linearGradient><linearGradient id="paint1_linear_4075_11899" x1="-6.77984" x2="21.2491" y1="18.0027" y2="-8.23637" gradientUnits="userSpaceOnUse"><stop stop-color="#EE0A3F"></stop><stop offset="1" stop-color="#EE0A3F" stop-opacity="0"></stop></linearGradient><linearGradient id="paint2_linear_4075_11899" x1="9.52279" x2="-0.123956" y1="15.4587" y2="7.57266" gradientUnits="userSpaceOnUse"><stop stop-color="#ED6600"></stop><stop offset="1" stop-color="#F98200"></stop></linearGradient></defs></svg>