<svg xmlns="http://www.w3.org/2000/svg" fill="none" viewBox="0 0 24 24" class="h-7"><path fill="#0A66C2" d="M18.3374 18.3373H15.6702V14.1604C15.6702 13.1644 15.6524 11.8822 14.2831 11.8822C12.8939 11.8822 12.6814 12.9674 12.6814 14.0879V18.3369H10.0143V9.74766H12.5747V10.9215H12.6106C13.1319 10.0301 14.1048 9.49573 15.1368 9.53406C17.8401 9.53406 18.3385 11.3121 18.3385 13.6253L18.3374 18.3373ZM7.00487 8.57354C6.15578 8.57354 5.45677 7.87493 5.45677 7.02584C5.45677 6.17675 6.15546 5.47806 7.00455 5.47806C7.85356 5.47806 8.55217 6.17659 8.55233 7.02552C8.55233 7.87444 7.8538 8.57346 7.00487 8.57354ZM8.33841 18.3373H5.66852V9.74766H8.33841V18.3373ZM19.667 3.00124H4.32822C3.6082 2.99311 3.00878 3.5786 3 4.29862V19.7011C3.00845 20.4215 3.60779 21.0076 4.32822 20.9999H19.667C20.3892 21.009 20.9906 20.4229 21.0003 19.7011V4.29758C20.9906 3.57602 20.3884 2.99061 19.667 3.00011V3.00124Z"></path></svg>