<svg xmlns="http://www.w3.org/2000/svg" fill="none" viewBox="0 0 24 24" class="h-7"><path fill="#E72121" fill-rule="evenodd" d="M19.8253 7.91374V16.2187C19.8253 16.3487 19.8072 16.477 19.7717 16.6022C19.7356 16.7274 19.6832 16.8454 19.614 16.9556C19.5447 17.0658 19.4616 17.1645 19.3647 17.2518C19.2678 17.3391 19.1606 17.4107 19.0438 17.4673L12.0007 20.8591C11.8093 20.953 11.607 21 11.3939 21C11.1808 21 10.9785 20.953 10.787 20.8591L6.6457 18.8411L3.7957 17.4366C3.67831 17.3794 3.57175 17.3066 3.47482 17.2193C3.3779 17.132 3.29482 17.0326 3.22559 16.9219C3.15635 16.8111 3.10398 16.6931 3.06785 16.5673C3.03173 16.4421 3.01367 16.3138 3.01367 16.1832V7.87883C3.01427 7.74999 3.03233 7.62296 3.06846 7.49895C3.10398 7.37493 3.15635 7.25814 3.22438 7.14857C3.29241 7.039 3.37429 6.94087 3.47001 6.85418C3.56573 6.76748 3.67109 6.69524 3.78667 6.63805L10.8039 3.14629C11.0002 3.04937 11.2073 3 11.4264 3C11.6455 3 11.8526 3.04937 12.0483 3.1475L19.0565 6.66514C19.1721 6.72293 19.278 6.79578 19.3731 6.88307C19.4689 6.97037 19.5501 7.0697 19.6182 7.17987C19.6862 7.29004 19.7374 7.40744 19.7729 7.53266C19.8078 7.65668 19.8253 7.78431 19.8253 7.91374Z" clip-rule="evenodd"></path><path fill="#55BEEE" d="M20.9866 8.11241C20.9866 8.35985 20.9625 8.60547 20.9143 8.84809C20.8662 9.09131 20.7945 9.3267 20.7 9.55547C20.6055 9.78424 20.4893 10.0016 20.3514 10.2075C20.2142 10.4134 20.0577 10.6042 19.8825 10.7794C19.7073 10.9546 19.517 11.1111 19.3111 11.2484C19.1052 11.3862 18.8879 11.5024 18.6591 11.5969C18.4304 11.6915 18.195 11.7631 17.9518 11.8119C17.7091 11.86 17.4641 11.8841 17.2161 11.8841C16.9687 11.8841 16.7236 11.86 16.4804 11.8119C16.2378 11.7637 16.0018 11.6921 15.773 11.5969C15.5443 11.5024 15.3269 11.3862 15.121 11.2484C14.9151 11.1105 14.7249 10.9546 14.5497 10.7794C14.3745 10.6042 14.2186 10.414 14.0807 10.2075C13.9435 10.0016 13.8273 9.78424 13.7322 9.55547C13.6376 9.3267 13.566 9.09071 13.5178 8.84809C13.4697 8.60487 13.4456 8.35985 13.4456 8.11241C13.4456 7.86498 13.4697 7.61935 13.5178 7.37674C13.566 7.13352 13.6376 6.89812 13.7322 6.66935C13.8267 6.44058 13.9429 6.22325 14.0807 6.01736C14.218 5.81147 14.3745 5.62062 14.5497 5.44543C14.7249 5.27024 14.9151 5.11372 15.121 4.97645C15.3269 4.83859 15.5443 4.7224 15.773 4.62788C16.0018 4.53336 16.2372 4.46172 16.4804 4.41296C16.723 4.36479 16.9681 4.34071 17.2161 4.34071C17.4641 4.34071 17.7085 4.36479 17.9518 4.41296C18.1944 4.46112 18.4304 4.53276 18.6591 4.62788C18.8879 4.7224 19.1052 4.83859 19.3111 4.97645C19.517 5.11432 19.7073 5.27024 19.8825 5.44543C20.0577 5.62062 20.2136 5.81086 20.3514 6.01736C20.4887 6.22325 20.6049 6.44058 20.7 6.66935C20.7945 6.89812 20.8662 7.13412 20.9143 7.37674C20.9625 7.61935 20.9866 7.86438 20.9866 8.11241Z"></path><path fill="white" d="M5.31642 15.0002L4.58255 14.6414V12.4548C4.58255 11.8197 4.94076 11.1587 5.68366 11.2538C5.9925 11.3062 6.27004 11.4284 6.51747 11.6204C6.7649 11.8125 6.95153 12.0521 7.07856 12.3386C7.19114 12.2327 7.32178 12.1586 7.47048 12.1165C7.61918 12.0744 7.76908 12.0695 7.92079 12.1008C8.29646 12.1526 9.72988 12.6842 9.72988 14.6245V17.2175L8.91835 16.8153V14.4042C8.92919 14.2495 8.91293 14.0972 8.86959 13.9485C8.82624 13.7992 8.75761 13.6625 8.6649 13.5379C8.57219 13.4133 8.46081 13.3091 8.33077 13.2242C8.20074 13.1399 8.05986 13.0809 7.90815 13.0466C7.66614 13.0207 7.4765 13.2152 7.45061 13.63C7.42472 14.0448 7.45061 16.0802 7.45061 16.0802L6.71192 15.7214V13.4355C6.71192 12.4289 6.05993 12.1135 5.77938 12.0876C5.61503 12.0876 5.31763 12.1653 5.31763 12.6842L5.31642 15.0002Z"></path></svg>