<svg xmlns="http://www.w3.org/2000/svg" fill="none" viewBox="0 0 24 24" class="h-7"><path fill="#002F6D" d="M22.0004 11.6152C22.0004 7.97072 17.5236 5 12.0007 5C6.47809 5 2.00123 7.97072 2.00123 11.6152C2.00123 11.7092 2 11.9694 2 12.0024C2 15.8686 5.91306 19 11.9993 19C18.1233 19 22.0004 15.8694 22.0004 12.0032V11.6152Z"></path><path fill="#FFE900" d="M21.6175 11.6119C21.6175 15.0477 17.3127 17.8329 12.0025 17.8329C6.69212 17.8329 2.38779 15.0477 2.38779 11.6119C2.38779 8.17581 6.69212 5.39047 12.0025 5.39047C17.3127 5.39047 21.6175 8.17581 21.6175 11.6119Z"></path><path fill="white" d="M8.80995 9.64913C8.80477 9.65895 8.70893 9.75931 8.77104 9.83994C8.92294 10.036 9.39139 10.1484 9.8653 10.041C10.1475 9.97681 10.509 9.68573 10.8596 9.40466C11.2393 9.09948 11.6161 8.79401 11.9948 8.67249C12.3958 8.54344 12.6527 8.59872 12.8224 8.65076C13.0087 8.7069 13.2275 8.8309 13.5769 9.09595C14.2347 9.59614 16.8805 11.9315 17.3374 12.3354C17.7055 12.1671 19.3412 11.4549 21.5646 10.9592C21.3716 9.76036 20.6503 8.66372 19.557 7.76562C18.0333 8.41296 16.1707 8.75074 14.3494 7.8512C14.3402 7.8473 13.3544 7.37542 12.3821 7.39867C10.9372 7.43251 10.3114 8.06508 9.64866 8.73473L8.80995 9.64913Z"></path><path fill="white" d="M17.2299 12.5893C17.1989 12.5614 14.1191 9.8361 13.4217 9.3057C13.0179 8.99947 12.7932 8.92132 12.5574 8.89101C12.4348 8.8749 12.265 8.89796 12.1466 8.93075C11.822 9.02006 11.3977 9.30703 11.0209 9.60917C10.6307 9.9234 10.2631 10.2193 9.92167 10.2966C9.48583 10.3955 8.9533 10.2788 8.71036 10.1127C8.61169 10.0458 8.54252 9.96839 8.50916 9.88976C8.41955 9.67922 8.58521 9.511 8.61226 9.48279L9.46208 8.55313C9.56065 8.45344 9.66026 8.35365 9.76213 8.25538C9.4878 8.29151 9.2345 8.36232 8.98779 8.4318C8.67992 8.51939 8.38374 8.6026 8.08416 8.6025C7.95901 8.6025 7.28871 8.49137 7.16159 8.45639C6.39253 8.24347 5.71752 8.03617 4.70919 7.56019C3.50128 8.46974 2.6932 9.60707 2.45997 10.8598C2.63336 10.9063 2.91324 10.9905 3.03057 11.0169C5.76454 11.6317 6.61625 12.2652 6.77061 12.3972C6.93787 12.2092 7.17902 12.09 7.44835 12.09C7.75104 12.0904 8.02357 12.2441 8.18914 12.4816C8.34585 12.3567 8.56175 12.2497 8.84087 12.2498C8.96762 12.2498 9.09927 12.2736 9.23205 12.3192C9.54029 12.4262 9.69946 12.6339 9.7822 12.8218C9.88558 12.7746 10.0129 12.7398 10.1626 12.7402C10.3098 12.7402 10.463 12.7741 10.6173 12.8417C11.1214 13.0604 11.2 13.5613 11.1541 13.9389C11.1901 13.9345 11.2262 13.933 11.2628 13.933C11.8605 13.9333 12.3465 14.4246 12.3465 15.0295C12.3465 15.2165 12.2991 15.3926 12.217 15.5469C12.3794 15.6394 12.7941 15.8487 13.158 15.8021C13.4487 15.7648 13.5591 15.6645 13.5988 15.6079C13.6258 15.5691 13.6544 15.5237 13.6276 15.4911L12.8563 14.6244C12.8563 14.6244 12.7292 14.5029 12.7713 14.4559C12.8148 14.4076 12.893 14.4767 12.9487 14.5239C13.3414 14.8555 13.8207 15.3561 13.8207 15.3561C13.8287 15.3613 13.8606 15.4246 14.0378 15.4567C14.1906 15.4844 14.4604 15.4684 14.6476 15.3133C14.6947 15.2739 14.7419 15.2246 14.7813 15.1744C14.7784 15.1765 14.7757 15.1801 14.7728 15.1814C14.9701 14.9259 14.7509 14.6677 14.7509 14.6677L13.8502 13.6448C13.8502 13.6448 13.7215 13.5244 13.7652 13.4759C13.8045 13.4339 13.8873 13.4972 13.9437 13.5447C14.229 13.7859 14.632 14.195 15.0179 14.5774C15.0931 14.6334 15.4328 14.8454 15.8819 14.5469C16.1549 14.3663 16.2096 14.1439 16.2018 13.9763C16.1829 13.7544 16.0116 13.5961 16.0116 13.5961L14.7813 12.3452C14.7813 12.3452 14.6515 12.2329 14.6975 12.1761C14.7348 12.1284 14.8195 12.1972 14.8746 12.2441C15.2666 12.5757 16.3276 13.5594 16.3276 13.5594C16.3424 13.5703 16.7091 13.8342 17.1621 13.5425C17.3241 13.4378 17.4276 13.2798 17.4363 13.0966C17.4519 12.7782 17.2299 12.5893 17.2299 12.5893Z"></path><path fill="white" d="M11.2628 14.1751C11.072 14.1729 10.8632 14.2875 10.8359 14.2708C10.821 14.2606 10.8476 14.1833 10.8656 14.1386C10.8838 14.094 11.1351 13.3296 10.5227 13.0641C10.0541 12.8604 9.76789 13.0895 9.66932 13.1929C9.64341 13.2201 9.63191 13.2179 9.62899 13.1833C9.61957 13.0457 9.55869 12.6733 9.15404 12.5487C8.57618 12.3694 8.20452 12.7776 8.11019 12.9248C8.06806 12.5917 7.78941 12.333 7.44818 12.3326C7.07755 12.3322 6.77703 12.636 6.77656 13.0108C6.77647 13.3856 7.0768 13.6894 7.44762 13.6894C7.62761 13.69 7.7911 13.6171 7.91144 13.5002C7.91521 13.5035 7.91672 13.51 7.91474 13.5229C7.88657 13.6908 7.83464 14.3008 8.46602 14.549C8.71933 14.6483 8.93466 14.5745 9.11314 14.4478C9.16657 14.4098 9.17505 14.4257 9.16751 14.4765C9.14462 14.6335 9.17355 14.9692 9.63907 15.16C9.99331 15.3054 10.2029 15.1564 10.3402 15.0281C10.3999 14.9728 10.4163 14.9819 10.4193 15.0672C10.4362 15.5213 10.8091 15.8816 11.2618 15.8819C11.7282 15.8822 12.1061 15.5007 12.1065 15.0294C12.1069 14.5576 11.729 14.1804 11.2628 14.1751Z"></path><path fill="#002F6D" d="M11.2628 15.8211C10.84 15.8206 10.4964 15.4888 10.481 15.0654C10.4797 15.0289 10.4761 14.9324 10.3954 14.9324C10.3621 14.9324 10.3334 14.9526 10.3001 14.9828C10.2072 15.0701 10.0888 15.1585 9.91594 15.1585C9.83735 15.1585 9.75244 15.1402 9.66263 15.103C9.21614 14.9202 9.21011 14.61 9.22839 14.4853C9.2332 14.452 9.2348 14.4176 9.21228 14.3904L9.18505 14.3656H9.15706C9.13425 14.3656 9.11107 14.3751 9.07931 14.3978C8.95002 14.4893 8.82638 14.5339 8.70039 14.5339C8.63122 14.5339 8.56017 14.5198 8.48873 14.4922C7.90117 14.2607 7.94763 13.6996 7.97628 13.5307C7.98062 13.4966 7.97213 13.47 7.95065 13.4524L7.90909 13.4178L7.87026 13.4555C7.75577 13.5672 7.60584 13.6281 7.44837 13.6281C7.11185 13.6278 6.83791 13.3511 6.8381 13.0109C6.83838 12.6701 7.11251 12.3938 7.44931 12.3941C7.75341 12.3941 8.01247 12.6256 8.05139 12.9328L8.07212 13.0986L8.16211 12.9585C8.17229 12.9419 8.41881 12.5648 8.87237 12.5652C8.9585 12.5652 9.04765 12.5792 9.13727 12.6073C9.49866 12.7189 9.55992 13.0504 9.56943 13.1884C9.57584 13.269 9.63248 13.2726 9.6435 13.2726C9.6747 13.2726 9.69778 13.2528 9.71399 13.2353C9.78222 13.1633 9.93083 13.0437 10.1634 13.0437C10.2696 13.0439 10.3829 13.0693 10.4998 13.1203C11.0743 13.3695 10.8137 14.1078 10.8106 14.1156C10.7611 14.238 10.7594 14.292 10.8057 14.3232L10.8284 14.3339H10.8449C10.8709 14.3339 10.9032 14.3226 10.9563 14.3044C11.0345 14.2771 11.1526 14.2358 11.2629 14.2361C11.6954 14.2411 12.0474 14.597 12.0471 15.0294C12.0465 15.4663 11.6947 15.8211 11.2628 15.8211ZM17.3488 12.2632C16.4003 11.4257 14.2079 9.49805 13.6142 9.04714C13.2749 8.78923 13.0435 8.65294 12.8405 8.59166C12.7491 8.56383 12.623 8.53209 12.4604 8.5319C12.3092 8.5319 12.1471 8.55954 11.9777 8.61405C11.5941 8.73681 11.2118 9.04419 10.842 9.34136L10.823 9.35661C10.4784 9.63349 10.1224 9.91999 9.85308 9.9808C9.73557 10.0076 9.61467 10.0215 9.49386 10.0215C9.1923 10.021 8.92118 9.93314 8.8195 9.8019C8.80273 9.78027 8.81357 9.7451 8.85277 9.69468L8.85786 9.68791L9.69232 8.77837C10.3461 8.1173 10.9635 7.49321 12.3845 7.46004C12.4081 7.45947 12.432 7.45909 12.4556 7.45909C13.34 7.45966 14.2243 7.86015 14.3235 7.90657C15.153 8.31554 16.009 8.52351 16.8698 8.52427C17.7666 8.52456 18.6919 8.30001 19.665 7.84681C19.5564 7.75426 19.4431 7.66448 19.3268 7.57613C18.4721 7.95098 17.6577 8.14046 16.8723 8.14008C16.0697 8.13941 15.2677 7.9445 14.4893 7.5604C14.4483 7.54058 13.4718 7.07499 12.4561 7.07441C12.4295 7.07441 12.4023 7.07499 12.3758 7.07527C11.1821 7.10348 10.5096 7.53238 10.0576 7.9079C9.61778 7.91858 9.23838 8.02599 8.90083 8.1213C8.59965 8.20594 8.33947 8.27952 8.08569 8.27923C7.98127 8.27923 7.79309 8.2696 7.77612 8.26903C7.48437 8.25998 6.01466 7.89532 4.84529 7.44774C4.72589 7.53314 4.61102 7.6214 4.49916 7.71128C5.72065 8.21785 7.20722 8.60957 7.67633 8.64036C7.80675 8.64894 7.94594 8.6639 8.08512 8.66419C8.39554 8.66419 8.70501 8.57602 9.00505 8.49129C9.18203 8.44087 9.37757 8.38626 9.58281 8.34642C9.52806 8.40075 9.47341 8.45603 9.41866 8.51188L8.57053 9.43944C8.50362 9.50749 8.35907 9.68944 8.45443 9.91342C8.49241 10.0038 8.56949 10.0901 8.67721 10.1637C8.87944 10.3012 9.24121 10.3943 9.57725 10.3945C9.70466 10.3945 9.82528 10.3818 9.93629 10.3565C10.2917 10.2758 10.6645 9.97556 11.0594 9.65798C11.3741 9.40503 11.8213 9.08393 12.1637 8.98967C12.2591 8.96327 12.3764 8.94707 12.4711 8.94707C12.4992 8.94726 12.5257 8.94812 12.5507 8.95164C12.7768 8.98071 12.9955 9.05858 13.3859 9.3549C14.0816 9.88368 17.1618 12.6086 17.1918 12.6356C17.1942 12.6374 17.3903 12.8087 17.3766 13.0935C17.3693 13.2522 17.2821 13.3934 17.1306 13.4914C16.9992 13.5754 16.8635 13.6185 16.7263 13.6185C16.5204 13.618 16.3787 13.5204 16.3696 13.5138C16.3583 13.5045 15.303 12.5259 14.9149 12.1972C14.8529 12.1454 14.7929 12.0988 14.732 12.0988C14.6995 12.0985 14.6708 12.1125 14.6514 12.1372C14.5903 12.2132 14.6587 12.3187 14.7393 12.388L15.9722 13.6411C15.9737 13.6426 16.1255 13.7867 16.1423 13.9789C16.1519 14.1866 16.0539 14.3602 15.8497 14.4958C15.7042 14.5925 15.5568 14.6417 15.4127 14.6417C15.2235 14.6417 15.0906 14.5544 15.0613 14.5339L14.8843 14.3576C14.5612 14.036 14.2275 13.7035 13.9834 13.4973C13.9238 13.4472 13.8601 13.4011 13.7994 13.4011C13.7697 13.4011 13.7426 13.4123 13.7218 13.4344C13.6939 13.4657 13.6746 13.522 13.744 13.6154C13.7725 13.6538 13.8061 13.6856 13.8061 13.6856L14.7059 14.7071C14.7133 14.7163 14.8912 14.9301 14.7259 15.1434L14.6944 15.184C14.6674 15.2143 14.6383 15.2419 14.6107 15.2654C14.4574 15.3929 14.2523 15.4066 14.1713 15.4066C14.1276 15.4066 14.0858 15.4027 14.0493 15.3962C13.9607 15.38 13.9011 15.355 13.8723 15.3204L13.8613 15.3092C13.8122 15.2575 13.3588 14.7896 12.9836 14.4729C12.9341 14.4309 12.8726 14.3779 12.8087 14.3779C12.7773 14.3779 12.749 14.3904 12.7276 14.4147C12.6532 14.4971 12.7649 14.6198 12.8121 14.665L13.5794 15.5206C13.5784 15.5284 13.5686 15.5461 13.5501 15.5732C13.5225 15.6113 13.4295 15.7054 13.1512 15.7411C13.118 15.7452 13.0835 15.7472 13.0496 15.7472C12.7625 15.7472 12.4565 15.6063 12.2987 15.5216C12.3704 15.3681 12.4076 15.1994 12.4076 15.0297C12.4081 14.391 11.8953 13.8717 11.2638 13.8712C11.2504 13.8712 11.2361 13.8717 11.2224 13.8722C11.2432 13.5806 11.2024 13.0285 10.6421 12.7853C10.481 12.7147 10.32 12.6788 10.1637 12.6788C10.0414 12.6788 9.92376 12.7 9.81275 12.743C9.69684 12.5149 9.50403 12.3487 9.25252 12.2619C9.11371 12.2132 8.97546 12.1888 8.84193 12.1888C8.60879 12.1888 8.39393 12.2579 8.20226 12.3959C8.01878 12.1652 7.74135 12.0283 7.44931 12.0283C7.19393 12.0283 6.94807 12.1318 6.76601 12.3141C6.52731 12.1298 5.57995 11.5211 3.04472 10.939C2.92193 10.9108 2.64017 10.8291 2.46743 10.778C2.43878 10.9167 2.41702 11.0571 2.4026 11.1988C2.4026 11.1988 2.87029 11.312 2.96227 11.3328C5.55215 11.9146 6.40791 12.5197 6.55266 12.6339C6.50375 12.7529 6.47821 12.8814 6.47793 13.0109C6.47764 13.5517 6.91273 13.9926 7.44818 13.9932C7.5083 13.9932 7.56777 13.988 7.62638 13.977C7.70695 14.3751 7.9645 14.677 8.35841 14.8318C8.47328 14.8767 8.58985 14.8996 8.70406 14.8996C8.77785 14.8998 8.85239 14.8904 8.92505 14.8717C8.9977 15.0586 9.16158 15.2914 9.52731 15.4416C9.65538 15.4939 9.78373 15.5213 9.90849 15.5213C10.0103 15.5213 10.11 15.5034 10.2049 15.4676C10.3802 15.8996 10.7972 16.1859 11.2625 16.1859C11.5706 16.1862 11.8666 16.0592 12.0825 15.8345C12.2671 15.9384 12.6575 16.1261 13.0513 16.127C13.1023 16.127 13.1503 16.1233 13.198 16.1172C13.5894 16.0672 13.7716 15.9127 13.8552 15.7922C13.8702 15.7714 13.8838 15.749 13.8954 15.726C13.988 15.7526 14.0896 15.7745 14.2058 15.7748C14.4196 15.7748 14.6246 15.7012 14.8321 15.5485C15.0358 15.3996 15.1806 15.1866 15.2014 15.005C15.2017 15.0026 15.2024 14.9997 15.2027 14.9971C15.2711 15.0115 15.3416 15.019 15.4121 15.019C15.632 15.019 15.8483 14.9494 16.0551 14.8125C16.4541 14.548 16.5235 14.2023 16.5169 13.9763C16.5868 13.9911 16.6581 13.9987 16.7289 13.9987C16.9357 13.9987 17.1385 13.9356 17.3318 13.8109C17.579 13.6511 17.7278 13.4063 17.7502 13.1214C17.766 12.9277 17.7184 12.7324 17.6176 12.5646C18.2859 12.2733 19.8137 11.7095 21.6127 11.2996C21.6019 11.1585 21.5818 11.0192 21.5569 10.8805C19.3801 11.3691 17.7558 12.08 17.3488 12.2632Z"></path></svg>