<svg xmlns="http://www.w3.org/2000/svg" fill="#410CD9" viewBox="0 0 24 24" aria-hidden="true" class="h-5 w-5 shrink-0 text-content-accent"><path fill-rule="evenodd" d="M7.71429 4C7.36521 4 7 4.31163 7 4.8V19.2C7 19.6884 7.36521 20 7.71429 20H16.2857C16.6348 20 17 19.6884 17 19.2V4.8C17 4.31163 16.6348 4 16.2857 4H7.71429ZM5 4.8C5 3.30014 6.16981 2 7.71429 2H16.2857C17.8302 2 19 3.30014 19 4.8V19.2C19 20.6999 17.8302 22 16.2857 22H7.71429C6.16981 22 5 20.6999 5 19.2V4.8ZM11 18C11 17.4477 11.4477 17 12 17H12.01C12.5623 17 13.01 17.4477 13.01 18C13.01 18.5523 12.5623 19 12.01 19H12C11.4477 19 11 18.5523 11 18Z" clip-rule="evenodd"></path></svg>