<svg xmlns="http://www.w3.org/2000/svg" fill="none" viewBox="0 0 24 24" class="h-7"><path fill="#E60022" fill-rule="evenodd" d="M12.0006 2C6.47815 2 2 6.47698 2 12.0006C2 16.0942 4.46252 19.6127 7.98695 21.1592C7.95873 20.4618 7.98225 19.6221 8.15982 18.8625C8.35268 18.051 9.44634 13.4141 9.44634 13.4141C9.44634 13.4141 9.12765 12.7756 9.12765 11.8313C9.12765 10.3495 9.9873 9.2429 11.0563 9.2429C11.9653 9.2429 12.4051 9.92615 12.4051 10.7446C12.4051 11.6584 11.8218 13.026 11.522 14.2926C11.2715 15.3545 12.0535 16.2189 13.1001 16.2189C14.9946 16.2189 16.2706 13.7857 16.2706 10.9022C16.2706 8.71136 14.7947 7.07085 12.11 7.07085C9.07708 7.07085 7.18728 9.33228 7.18728 11.8583C7.18728 12.7309 7.44365 13.3447 7.84583 13.8198C8.03164 14.0397 8.05633 14.1268 7.9893 14.3784C7.94226 14.5607 7.83172 15.0052 7.78585 15.1805C7.71882 15.4333 7.51421 15.525 7.28606 15.4309C5.88782 14.8606 5.2375 13.3306 5.2375 11.6102C5.2375 8.77016 7.63298 5.36215 12.384 5.36215C16.2024 5.36215 18.7155 8.12689 18.7155 11.0916C18.7155 15.0146 16.5352 17.9452 13.3189 17.9452C12.2405 17.9452 11.2244 17.3619 10.8763 16.6998C10.8763 16.6998 10.2954 19.0036 10.1731 19.4481C9.96143 20.2184 9.5463 20.9898 9.16646 21.5896C10.0661 21.8553 11.0163 22 12.0006 22C17.523 22 22 17.523 22 12.0006C22 6.47698 17.523 2 12.0006 2Z" clip-rule="evenodd"></path></svg>