<svg xmlns="http://www.w3.org/2000/svg" fill="none" viewBox="0 0 24 24" class="h-7"><path fill="#602D35" d="M15.1138 2.00095C11.9526 2.00095 9.40083 4.57177 9.40083 7.71387V16.7022H11.5146V7.71387C11.5146 5.71435 13.1333 4.11474 15.1138 4.11474C17.1133 4.11474 18.7129 5.7334 18.7129 7.71387C18.7129 9.61818 17.2275 11.1988 15.3232 11.313V13.4268C18.4844 13.3506 20.979 10.7417 20.9028 7.58057C20.8457 4.45751 18.2559 1.94383 15.1138 2.00095ZM12.4096 16.2833C12.4096 18.2828 10.791 19.8824 8.8105 19.8824C6.81098 19.8824 5.21136 18.2637 5.21136 16.2833C5.21136 14.3789 6.69672 12.7984 8.60102 12.6841V10.5703C5.43988 10.6846 2.98332 13.3316 3.09758 16.4927C3.21184 19.6539 5.85882 22.1104 9.01997 21.9962C12.0859 21.8819 14.5234 19.3492 14.5234 16.2833V7.29493H12.4096V16.2833Z"></path></svg>