<svg xmlns="http://www.w3.org/2000/svg" fill="none" viewBox="0 0 264 264" class="mb-8 h-12 w-12 tall:mb-12 tall:h-16 tall:w-16"><path fill="url(#paint0_linear_799_3342)" d="M223.027 262.406C214.642 262.406 206.275 259.041 200.133 252.392L16.7621 53.8889C5.08334 41.2488 5.86667 21.5409 18.5068 9.86218C31.1469 -1.81656 50.8548 -1.03323 62.5335 11.6069L245.904 210.11C257.583 222.75 256.8 242.458 244.159 254.137C238.169 259.673 230.585 262.406 223.027 262.406Z"></path><path fill="url(#paint1_radial_799_3342)" d="M39.6474 262.406C22.4408 262.406 8.49219 248.457 8.49219 231.25V148.466C8.49219 131.26 22.4408 117.311 39.6474 117.311H166.494C181.217 117.311 193.198 105.33 193.198 90.6067C193.198 75.8837 181.217 63.9022 166.494 63.9022H39.6474C22.4408 63.9022 8.49219 49.9536 8.49219 32.747C8.49219 15.5404 22.4408 1.5918 39.6474 1.5918H166.494C215.576 1.5918 255.508 41.5239 255.508 90.6067C255.508 139.69 215.576 179.622 166.494 179.622H70.8026V231.25C70.8026 248.457 56.854 262.406 39.6474 262.406Z"></path><defs><linearGradient id="paint0_linear_799_3342" x1="17.8392" x2="254.174" y1="19.3957" y2="276.649" gradientUnits="userSpaceOnUse"><stop stop-color="#C6F0FA"></stop><stop offset="0.114583" stop-color="#95D9FC"></stop><stop offset="0.385417" stop-color="#5071FC"></stop><stop offset="0.6537" stop-color="#4A3DDC"></stop><stop offset="1" stop-color="#400A7F"></stop></linearGradient><radialGradient id="paint1_radial_799_3342" cx="0" cy="0" r="1" gradientTransform="translate(-6.64033 314.924) rotate(-46.5126) scale(464.996 790.518)" gradientUnits="userSpaceOnUse"><stop offset="0.091" stop-color="#FC8D95"></stop><stop offset="0.1398" stop-color="#EE747F"></stop><stop offset="0.2256" stop-color="#F4A58D"></stop><stop offset="0.3374" stop-color="#FFD7EA"></stop><stop offset="0.3672" stop-color="#FFD9F8"></stop><stop offset="0.4193" stop-color="#FEE2FA"></stop><stop offset="0.4858" stop-color="#FDD3FB"></stop><stop offset="0.5354" stop-color="#FCC2FB"></stop><stop offset="0.674" stop-color="#FCBFFB"></stop><stop offset="0.7808" stop-color="#F08BF3"></stop><stop offset="0.8767" stop-color="#EE70F8"></stop><stop offset="0.9188" stop-color="#E752F4"></stop></radialGradient></defs></svg>