<svg xmlns="http://www.w3.org/2000/svg" viewBox="0 0 24 24" fill="#410CD9" aria-hidden="true" class="h-7 w-7 text-content-accent"><path d="M6 2C6.55228 2 7 2.44772 7 3V16C7 16.5523 7.44772 17 8 17H16V19H8C6.34315 19 5 17.6569 5 16V7H3C2.44772 7 2 6.55228 2 6C2 5.44772 2.44772 5 3 5H5V3C5 2.44772 5.44772 2 6 2Z"></path><path d="M8 7H16C16.5523 7 17 7.44772 17 8V21C17 21.5523 17.4477 22 18 22C18.5523 22 19 21.5523 19 21V19H21C21.5523 19 22 18.5523 22 18C22 17.4477 21.5523 17 21 17H19V8C19 6.34315 17.6569 5 16 5H8V7Z"></path></svg>