<svg xmlns="http://www.w3.org/2000/svg" viewBox="0 0 24 24" fill="#410CD9" aria-hidden="true" class="h-7 w-7 text-content-accent"><path d="M2.63458 0.264451C2.75061 -0.0881504 3.24939 -0.0881504 3.36542 0.264451L3.89112 1.86334C3.92959 1.97938 4.02062 2.07041 4.13666 2.10888L5.73555 2.63458C6.08815 2.75061 6.08815 3.24939 5.73555 3.36542L4.13666 3.89112C4.02062 3.92959 3.92959 4.02062 3.89112 4.13666L3.36542 5.73555C3.24939 6.08815 2.75061 6.08815 2.63458 5.73555L2.10888 4.13666C2.07041 4.02062 1.97938 3.92959 1.86334 3.89112L0.264451 3.36542C-0.0881504 3.24939 -0.0881504 2.75061 0.264451 2.63458L1.86334 2.10888C1.97938 2.07041 2.07041 1.97938 2.10888 1.86334L2.63458 0.264451Z"></path><path fill-rule="evenodd" d="M23 22C23 21.449 22.551 21.003 22 21.008L12.822 21.077L21.899 12C23.071 10.828 23.071 8.929 21.899 7.757L16.243 2.101C15.071 0.929 13.172 0.929 12 2.101L2.101 12C0.929 13.172 0.929 15.071 2.101 16.243L7 21.143H7.022L7.846 21.916C8.587 22.612 9.566 23 10.584 23H22C22.552 23 23 22.552 23 22ZM3.593 14.75C3.203 14.359 3.203 13.726 3.593 13.336L8.543 8.386L15.614 15.457L10.664 20.407C10.274 20.797 9.641 20.797 9.25 20.407L3.593 14.75ZM17 14L20.2929 10.7071C20.6834 10.3166 20.6834 9.68342 20.2929 9.29289L14.7071 3.70711C14.3166 3.31658 13.6834 3.31658 13.2929 3.70711L10 7L17 14Z" clip-rule="evenodd"></path><path d="M21.8045 15.2204C21.7078 14.9265 21.2922 14.9265 21.1955 15.2204L20.7574 16.5528C20.7253 16.6495 20.6495 16.7253 20.5528 16.7574L19.2204 17.1955C18.9265 17.2922 18.9265 17.7078 19.2204 17.8045L20.5528 18.2426C20.6495 18.2747 20.7253 18.3505 20.7574 18.4472L21.1955 19.7796C21.2922 20.0735 21.7078 20.0735 21.8045 19.7796L22.2426 18.4472C22.2747 18.3505 22.3505 18.2747 22.4472 18.2426L23.7796 17.8045C24.0735 17.7078 24.0735 17.2922 23.7796 17.1955L22.4472 16.7574C22.3505 16.7253 22.2747 16.6495 22.2426 16.5528L21.8045 15.2204Z"></path><path d="M1.75638 20.1763C1.83374 19.9412 2.16626 19.9412 2.24362 20.1763L2.59408 21.2422C2.61972 21.3196 2.68041 21.3803 2.75777 21.4059L3.8237 21.7564C4.05877 21.8337 4.05877 22.1663 3.8237 22.2436L2.75777 22.5941C2.68041 22.6197 2.61972 22.6804 2.59408 22.7578L2.24362 23.8237C2.16626 24.0588 1.83374 24.0588 1.75638 23.8237L1.40592 22.7578C1.38028 22.6804 1.31959 22.6197 1.24223 22.5941L0.176301 22.2436C-0.058767 22.1663 -0.058767 21.8337 0.176301 21.7564L1.24223 21.4059C1.31959 21.3803 1.38028 21.3196 1.40592 21.2422L1.75638 20.1763Z"></path></svg>