<svg xmlns="http://www.w3.org/2000/svg" fill="none" viewBox="0 0 24 24" class="h-7"><path fill="#95BF47" d="M18.6344 5.85113C18.6205 5.75013 18.5323 5.6941 18.459 5.688C18.3864 5.6819 16.9626 5.66027 16.9626 5.66027C16.9626 5.66027 15.7718 4.50392 15.6542 4.38628C15.5366 4.26865 15.3068 4.30416 15.2175 4.3308C15.2164 4.33135 14.9939 4.40016 14.6194 4.51612C14.5567 4.31304 14.4645 4.06335 14.333 3.81255C13.9091 3.00355 13.2882 2.57575 12.538 2.57464C12.5369 2.57464 12.5364 2.57464 12.5353 2.57464C12.4831 2.57464 12.4315 2.57964 12.3794 2.58407C12.3572 2.55744 12.335 2.53136 12.3117 2.50584C11.9848 2.15627 11.5659 1.98593 11.0638 2.00091C10.095 2.02865 9.13008 2.72834 8.34771 3.97124C7.79728 4.84571 7.37835 5.94437 7.25961 6.79497C6.1471 7.13953 5.36917 7.38033 5.35197 7.3859C4.79044 7.56233 4.77269 7.57953 4.69945 8.1089C4.64507 8.50893 3.17578 19.8704 3.17578 19.8704L15.4888 22L20.8255 20.6733C20.8255 20.6733 18.6482 5.95213 18.6344 5.85113ZM14.0029 4.707C13.7194 4.79467 13.397 4.89454 13.0474 5.00274C13.0402 4.51224 12.9819 3.82975 12.7533 3.23993C13.4885 3.3792 13.8503 4.21095 14.0029 4.707ZM12.4032 5.20249C11.7579 5.40223 11.0538 5.6203 10.3474 5.83893C10.5461 5.0782 10.9228 4.32081 11.3856 3.8242C11.5576 3.63943 11.7984 3.43358 12.0836 3.31594C12.3516 3.87525 12.4099 4.66705 12.4032 5.20249ZM11.0832 2.64566C11.3107 2.64067 11.5021 2.69061 11.6658 2.79825C11.4039 2.9342 11.1509 3.12951 10.9134 3.38419C10.298 4.04449 9.82641 5.06933 9.63831 6.0581C9.05181 6.23953 8.47808 6.41767 7.94985 6.5808C8.28335 5.02438 9.58781 2.68894 11.0832 2.64566Z"></path><path fill="#5E8E3E" d="M18.459 5.688C18.3864 5.6819 16.9626 5.66027 16.9626 5.66027C16.9626 5.66027 15.7718 4.50392 15.6542 4.38628C15.6103 4.34245 15.5515 4.32026 15.4894 4.31083L15.4899 21.9995L20.8255 20.6733C20.8255 20.6733 18.6482 5.95213 18.6344 5.85113C18.6205 5.75013 18.5323 5.6941 18.459 5.688Z"></path><path fill="white" d="M12.5314 8.4324L11.9116 10.7512C11.9116 10.7512 11.2202 10.4366 10.4007 10.4882C9.19885 10.5642 9.18608 11.3221 9.19831 11.5125C9.26378 12.5495 11.992 12.7759 12.1452 15.2051C12.2656 17.1161 11.1314 18.4233 9.49738 18.5265C7.53591 18.6503 6.45614 17.4934 6.45614 17.4934L6.87175 15.7256C6.87175 15.7256 7.95871 16.5457 8.82875 16.4907C9.39695 16.4547 9.60001 15.9925 9.57948 15.6656C9.49405 14.3129 7.27235 14.3928 7.13198 12.17C7.01378 10.2995 8.24228 8.4041 10.9528 8.2332C11.997 8.16607 12.5314 8.4324 12.5314 8.4324Z"></path></svg>