<svg xmlns="http://www.w3.org/2000/svg" fill="none" viewBox="0 0 24 24" class="h-7"><path fill="#EE4E2C" fill-rule="evenodd" d="M19.8009 21.4916C19.4798 21.7998 19.0558 21.9807 18.6092 22L18.5979 21.9981H5.25095C4.34943 21.9644 3.68416 21.2397 3.59345 20.339V20.176L3 7.23221V7.20225C3 7.10292 3.03982 7.00765 3.11071 6.93741C3.1816 6.86717 3.27774 6.82772 3.37799 6.82772H7.56615C7.66821 4.14045 9.61676 2 12.0038 2C14.3908 2 16.3394 4.14232 16.4414 6.82772H20.622C20.7223 6.82772 20.8184 6.86717 20.8893 6.93741C20.9602 7.00765 21 7.10292 21 7.20225V7.22284L20.3517 20.2172V20.3277C20.318 20.7694 20.122 21.1835 19.8009 21.4916ZM15.2281 6.82772C15.1619 4.79401 13.7444 3.16854 12.0038 3.16854C10.2631 3.16854 8.84565 4.78652 8.7795 6.82772H15.2281ZM14.7985 18.2678C15.0866 17.893 15.267 17.4478 15.3205 16.9796C15.5189 15.4122 14.4946 14.4047 11.8051 13.5545C10.503 13.1144 9.88872 12.5376 9.90384 11.7436C9.95865 10.8635 10.7865 10.2212 11.8826 10.2006C12.7478 10.2112 13.5911 10.4715 14.3093 10.9496C14.4057 11.0095 14.4757 11.0002 14.5305 10.9178C14.5528 10.8826 14.5844 10.8334 14.6194 10.7787C14.7058 10.6439 14.8136 10.4755 14.8593 10.4009C14.8724 10.3823 14.8814 10.3611 14.8857 10.3387C14.8899 10.3164 14.8894 10.2934 14.884 10.2713C14.8787 10.2492 14.8686 10.2284 14.8546 10.2104C14.8406 10.1924 14.8229 10.1776 14.8026 10.1669C14.5404 9.99617 14.2641 9.84771 13.9767 9.72303C13.3064 9.44177 12.586 9.29659 11.8581 9.29606C10.2516 9.30168 8.98721 10.3092 8.88137 11.6519C8.81207 12.6232 9.29716 13.409 10.3366 14.0096C10.9518 14.2944 11.5828 14.5445 12.2266 14.7586C13.7121 15.2174 14.4946 16.0433 14.3056 17.0058C14.1411 17.8803 13.2132 18.444 11.9355 18.4609C10.975 18.4102 10.0544 18.0632 9.30283 17.4683L9.18376 17.3785C9.16765 17.3618 9.14793 17.3491 9.1261 17.3411C9.10426 17.3332 9.08089 17.3303 9.05776 17.3326C9.03462 17.335 9.01233 17.3425 8.99257 17.3547C8.97281 17.3668 8.95611 17.3833 8.94373 17.4028C8.90782 17.4702 8.63 17.8822 8.56574 17.9646C8.50148 18.047 8.5355 18.0957 8.60354 18.1519C8.89973 18.3975 9.21939 18.6138 9.55797 18.7979C10.2968 19.1701 11.1091 19.3772 11.9374 19.4047C12.5343 19.4325 13.1301 19.3315 13.6838 19.1088C14.1251 18.9333 14.5103 18.6427 14.7985 18.2678Z" clip-rule="evenodd"></path></svg>