<svg xmlns="http://www.w3.org/2000/svg" fill="none" viewBox="0 0 24 24" class="h-7"><path fill="black" d="M12.0003 1.95996C14.7819 1.95996 17.0369 4.21496 17.0369 6.99664H15.7115C15.7115 4.94698 14.0499 3.2854 12.0003 3.2854C9.95059 3.2854 8.28901 4.94698 8.28901 6.99664H6.96357C6.96357 4.21496 9.21857 1.95996 12.0003 1.95996Z"></path><path fill="#E53238" d="M3.18555 6.99668L6.96357 6.99664L6.96306 22.0405C4.8768 22.0405 3.18555 20.3492 3.18555 18.2629V6.99668Z"></path><path fill="#0064D2" d="M6.96357 6.99664L11.9997 6.99668V22.0405H6.96306L6.96357 6.99664Z"></path><path fill="#F5AF02" d="M11.9997 6.99668L17.0369 6.99664L17.0364 22.0405H11.9997V6.99668Z"></path><path fill="#86B817" d="M17.0369 6.99664L20.8139 6.99668V18.2629C20.8139 20.3492 19.1227 22.0405 17.0364 22.0405L17.0369 6.99664Z"></path></svg>