<svg xmlns="http://www.w3.org/2000/svg" fill="none" viewBox="0 0 24 24" class="h-7"><path fill="#FF004F" d="M16.0018 9.2196C17.2932 10.1422 18.8752 10.6851 20.5838 10.6851V7.39888C20.2604 7.39895 19.9379 7.36525 19.6215 7.29826V9.88498C17.913 9.88498 16.3313 9.34212 15.0395 8.41954V15.1258C15.0395 18.4806 12.3186 21.2 8.96226 21.2C7.70994 21.2 6.54596 20.8216 5.57904 20.1726C6.68262 21.3004 8.22164 22 9.9243 22C13.2808 22 16.0019 19.2806 16.0019 15.9257L16.0018 9.2196ZM17.1888 5.9042C16.5289 5.18356 16.0956 4.25227 16.0018 3.22268V2.80001H15.0899C15.3195 4.10861 16.1024 5.2266 17.1888 5.9042ZM7.70191 17.5982C7.33318 17.115 7.13392 16.5239 7.13481 15.9161C7.13481 14.3817 8.37937 13.1376 9.91483 13.1376C10.201 13.1376 10.4854 13.1814 10.7581 13.2678V9.90818C10.4394 9.86453 10.1178 9.84599 9.79629 9.85279V12.4678C9.52338 12.3813 9.2388 12.3374 8.95258 12.3377C7.41713 12.3377 6.17263 13.5816 6.17263 15.1162C6.17263 16.2012 6.79471 17.1406 7.70191 17.5982Z"></path><path fill="black" d="M15.0395 8.41954C16.3313 9.34212 17.913 9.88498 19.6215 9.88498V7.29826C18.6679 7.09522 17.8236 6.59704 17.1888 5.9042C16.1024 5.2266 15.3195 4.10861 15.0899 2.80001H12.6947V15.9255C12.6893 17.4557 11.4468 18.6947 9.91466 18.6947C9.01179 18.6947 8.2099 18.2646 7.70191 17.5982C6.79471 17.1406 6.17263 16.2012 6.17263 15.1162C6.17263 13.5816 7.41713 12.3377 8.95258 12.3377C9.24676 12.3377 9.53031 12.3834 9.79629 12.4678V9.85279C6.49894 9.92088 3.84692 12.6138 3.84692 15.9256C3.84692 17.5789 4.50725 19.0775 5.57904 20.1726C6.54596 20.8216 7.70994 21.2 8.96226 21.2C12.3186 21.2 15.0395 18.4806 15.0395 15.1258V8.41954Z"></path><path fill="#00F2EA" d="M19.6215 7.29826L19.6215 6.59874C18.7616 6.60004 17.9185 6.35941 17.1888 5.9042C17.8347 6.61097 18.6852 7.09831 19.6215 7.29826ZM15.0899 2.80001C15.068 2.67495 15.0512 2.54904 15.0395 2.42268V2H11.7324V15.1257C11.7271 16.6556 10.4847 17.8946 8.95245 17.8946C8.50259 17.8946 8.07805 17.7879 7.70191 17.5982C8.2099 18.2646 9.01179 18.6947 9.91466 18.6947C11.4468 18.6947 12.6893 17.4557 12.6947 15.9255V2.80001H15.0899ZM9.79629 9.85279L9.79629 9.10824C9.51995 9.07049 9.24135 9.05155 8.9624 9.05169C5.60575 9.05162 2.88477 11.7712 2.88477 15.1257C2.88477 17.2288 3.95402 19.0823 5.57904 20.1726C4.50725 19.0775 3.84692 17.5789 3.84692 15.9256C3.84692 12.6138 6.49894 9.92088 9.79629 9.85279Z"></path></svg>