<svg xmlns="http://www.w3.org/2000/svg" fill="none" viewBox="0 0 24 24" class="h-7"><path fill="#09B1BA" d="M3 5C3 3.89543 3.89543 3 5 3H19C20.1046 3 21 3.89543 21 5V19C21 20.1046 20.1046 21 19 21H5C3.89543 21 3 20.1046 3 19V5Z"></path><path fill="white" fill-rule="evenodd" d="M16.1993 6.20572C16.1301 6.20572 15.9529 6.31224 15.5189 6.66561C15.3522 6.72418 15.2241 6.6719 15.0248 6.94469C13.7906 8.63882 12.9125 13.9963 11.8685 15.8803C11.6641 15.8056 11.6853 11.7232 11.569 8.89549C11.5745 8.52247 11.6385 8.35699 11.6153 7.67148C11.5957 7.09052 11.5037 6.69981 10.8984 6.53826C9.98411 6.29456 8.65828 6.72615 8.6402 7.64239C8.59107 10.59 8.82101 13.7782 9.44128 16.8803C9.6044 17.6943 10.3823 17.8284 11.2117 17.7883C13.8606 17.3571 14.2682 14.163 15.0126 11.4736C15.3 10.4332 15.9937 7.26937 16.3176 6.35902C16.3357 6.30792 16.2929 6.19275 16.1993 6.20572Z" clip-rule="evenodd"></path></svg>