<svg xmlns="http://www.w3.org/2000/svg" fill="none" viewBox="0 0 24 24" class="h-7"><path fill="#FF0000" d="M21.8706 7.81108C21.8706 6.05278 20.5773 4.63832 18.9792 4.63832C16.8145 4.53712 14.6069 4.49805 12.3508 4.49805H11.6475C9.39683 4.49805 7.18527 4.53712 5.02061 4.63871C3.42642 4.63871 2.13309 6.06098 2.13309 7.81928C2.0354 9.2099 1.99399 10.6009 1.99633 11.9919C1.99242 13.3829 2.03671 14.7753 2.12918 16.1689C2.12918 17.9272 3.42251 19.3534 5.0167 19.3534C7.29077 19.4588 9.62345 19.5057 11.9952 19.5018C14.3709 19.5096 16.697 19.4602 18.9737 19.3534C20.5718 19.3534 21.8651 17.9272 21.8651 16.1689C21.9589 14.774 22.0019 13.3829 21.998 11.988C22.0068 10.597 21.9644 9.20469 21.8706 7.81108ZM10.0845 15.825V8.14711L15.7502 11.9841L10.0845 15.825Z"></path></svg>